HIERARCHY
ROOT root
{
	OFFSET 0.000000 0.000000 0.000000
	CHANNELS 6 Xposition Yposition Zposition Zrotation Yrotation Xrotation
	JOINT lhip
	{
		OFFSET 0.058581 -0.082280 -0.017664
		CHANNELS 3 Zrotation Yrotation Xrotation
		JOINT lknee
		{
			OFFSET 0.043451 -0.386469 0.008037
			CHANNELS 3 Zrotation Yrotation Xrotation
			JOINT lankle
			{
				OFFSET -0.014790 -0.426874 -0.037428
				CHANNELS 3 Zrotation Yrotation Xrotation
				JOINT ltoe
				{
					OFFSET 0.041054 -0.060286 0.122042
					CHANNELS 3 Zrotation Yrotation Xrotation
					End Site
					{
						OFFSET 0.000000 0.000000 0.000000
					}
				}
			}
		}
	}
	JOINT rhip
	{
		OFFSET -0.060310 -0.090513 -0.013543
		CHANNELS 3 Zrotation Yrotation Xrotation
		JOINT rknee
		{
			OFFSET -0.043257 -0.383688 -0.004843
			CHANNELS 3 Zrotation Yrotation Xrotation
			JOINT rankle
			{
				OFFSET 0.019056 -0.420046 -0.034562
				CHANNELS 3 Zrotation Yrotation Xrotation
				JOINT rtoe
				{
					OFFSET -0.034840 -0.062106 0.130323
					CHANNELS 3 Zrotation Yrotation Xrotation
					End Site
					{
						OFFSET 0.000000 0.000000 0.000000
					}
				}
			}
		}
	}
	JOINT lowerback
	{
		OFFSET 0.004439 0.124404 -0.038385
		CHANNELS 3 Zrotation Yrotation Xrotation
		JOINT upperback
		{
			OFFSET 0.004488 0.137956 0.026820
			CHANNELS 3 Zrotation Yrotation Xrotation
			JOINT chest
			{
				OFFSET -0.002265 0.056032 0.002855
				CHANNELS 3 Zrotation Yrotation Xrotation
				JOINT lowerneck
				{
					OFFSET -0.013390 0.211636 -0.033468
					CHANNELS 3 Zrotation Yrotation Xrotation
					JOINT upperneck
					{
						OFFSET 0.010113 0.088937 0.050410
						CHANNELS 3 Zrotation Yrotation Xrotation
						End Site
						{
							OFFSET 0.000000 0.000000 0.000000
						}
					}
				}
				JOINT lclavicle
				{
					OFFSET 0.071702 0.114000 -0.018898
					CHANNELS 3 Zrotation Yrotation Xrotation
					JOINT lshoulder
					{
						OFFSET 0.122921 0.045205 -0.019046
						CHANNELS 3 Zrotation Yrotation Xrotation
						JOINT lelbow
						{
							OFFSET 0.255332 -0.015649 -0.022946
							CHANNELS 3 Zrotation Yrotation Xrotation
							JOINT lwrist
							{
								OFFSET 0.265709 0.012698 -0.007375
								CHANNELS 3 Zrotation Yrotation Xrotation
								End Site
								{
									OFFSET 0.000000 0.000000 0.000000
								}
							}
						}
					}
				}
				JOINT rclavicle
				{
					OFFSET -0.082954 0.112472 -0.023707
					CHANNELS 3 Zrotation Yrotation Xrotation
					JOINT rshoulder
					{
						OFFSET -0.113228 0.046853 -0.008472
						CHANNELS 3 Zrotation Yrotation Xrotation
						JOINT relbow
						{
							OFFSET -0.260127 -0.014369 -0.031269
							CHANNELS 3 Zrotation Yrotation Xrotation
							JOINT rwrist
							{
								OFFSET -0.269108 0.006794 -0.006027
								CHANNELS 3 Zrotation Yrotation Xrotation
								End Site
								{
									OFFSET 0.000000 0.000000 0.000000
								}
							}
						}
					}
				}
			}
		}
	}
}
MOTION
Frames: 16
Frame Time: 0.033333
0.080852 0.239140 1.007493 74.279944 3.598033 84.405409 3.504487 1.051795 7.496260 -2.483340 -13.153830 2.094389 3.147684 9.044052 -11.487972 0.000000 -0.000000 0.000000 -2.855334 4.793716 -10.332878 -1.783248 10.116215 24.726772 5.777328 -6.096889 -8.102453 0.000000 -0.000000 0.000000 -1.445184 -3.386789 10.707873 1.082925 -1.732076 0.061308 -1.389459 -1.674805 0.952663 1.200549 -6.146782 -6.656961 1.097077 -11.392902 12.795087 -32.361276 -1.061980 0.174650 -47.457742 -12.686160 10.805312 8.877165 -34.654152 1.843969 6.093929 -6.174464 -1.284082 30.592621 -0.620689 2.287009 47.295744 -6.175046 16.113758 -14.652714 41.542196 4.181146 7.513376 6.435659 0.368544 
0.086081 0.237820 1.007494 73.739895 3.734516 84.623679 3.817817 1.605153 7.881061 -2.505890 -13.040225 1.642058 2.856224 8.618660 -11.644366 0.000000 -0.000000 0.000000 -1.050352 5.188160 -10.131275 -0.846334 10.904259 21.591471 7.144837 -3.394730 -9.759574 0.000000 -0.000000 0.000000 -1.191983 -3.457500 10.423313 1.159129 -1.819231 0.120884 -1.340674 -1.710445 0.770421 1.326875 -5.623475 -6.802938 0.981760 -11.823914 12.687426 -32.413299 -1.296037 0.108290 -47.852542 -12.470562 11.201551 8.632082 -34.905740 2.406652 5.734174 -6.369001 -0.266059 30.468339 -0.769066 2.458803 47.356250 -6.183395 15.577979 -14.531893 41.640244 4.442694 7.392433 6.542118 0.085739 
0.090372 0.235763 1.007479 73.414217 3.782775 84.843762 4.022171 1.694928 8.078009 -2.545190 -13.126365 1.436518 2.485607 8.560017 -11.844251 0.000000 -0.000000 0.000000 0.888875 6.055009 -9.847425 0.090999 12.782972 19.427763 8.440836 -0.386654 -11.558097 0.000000 -0.000000 0.000000 -1.060546 -3.449718 10.272111 1.306288 -1.975265 0.184045 -1.333841 -1.712353 0.804378 1.428760 -5.006476 -7.073820 0.975067 -12.384323 12.348281 -32.462935 -1.545643 -0.267966 -48.241828 -12.488609 11.795487 8.198704 -34.462959 2.646017 6.715951 -6.818819 0.651887 30.497916 -0.823625 2.457983 47.254903 -6.208089 15.327115 -14.296247 41.403367 4.908915 6.569291 6.788882 -0.290421 
0.094318 0.233395 1.007030 73.498669 3.499811 85.211279 3.823785 1.524229 7.899764 -2.535558 -13.206157 1.613378 2.139382 8.463778 -12.029077 0.000000 -0.000000 0.000000 2.625547 7.301783 -9.976906 1.026996 15.660775 19.210183 9.185078 2.379306 -13.060538 0.000000 -0.000000 0.000000 -1.164716 -3.499991 9.762480 1.478488 -2.267210 0.608017 -1.412150 -1.922584 0.713515 1.539869 -4.468939 -7.177286 0.823423 -12.803291 12.052837 -32.539229 -1.969562 -0.207159 -48.529658 -12.204918 12.184019 8.504242 -33.941676 2.600177 4.965872 -6.307227 1.581168 30.539614 -0.671556 2.722216 47.299504 -6.184375 15.229829 -14.350369 41.003086 5.283740 7.452535 6.603211 -0.576673 
0.098907 0.231418 1.006602 74.137050 2.745131 85.461735 2.962305 0.910087 7.714154 -2.563465 -13.592283 2.046734 2.295463 8.610107 -12.389094 0.000000 -0.000000 0.000000 3.488890 8.875119 -9.953593 2.047239 18.140390 20.248033 10.086863 4.687950 -14.198147 0.000000 -0.000000 0.000000 -1.520465 -3.659979 9.663818 1.567816 -2.569560 0.653746 -1.557204 -2.076389 0.699499 1.519750 -4.113209 -7.247350 0.531775 -13.232657 11.965787 -32.586978 -2.204726 -0.432799 -48.957719 -11.982746 12.687140 8.541324 -32.824337 2.750967 3.868021 -6.372664 2.636841 30.447381 -1.038029 2.588397 47.543316 -6.457908 15.360685 -14.325714 40.714946 5.995211 7.918557 6.475179 -0.673565 
0.104586 0.229424 1.005653 75.717032 1.942068 85.307499 2.145914 0.565674 7.688377 -2.636964 -14.606281 2.922938 2.150101 8.352837 -12.886605 0.000000 -0.000000 0.000000 3.961004 10.354583 -9.030795 2.338605 19.166957 20.905218 9.925171 5.503238 -14.282226 0.000000 -0.000000 0.000000 -1.495399 -4.305784 10.009438 1.436990 -2.845723 0.627286 -1.858936 -2.248224 0.755356 1.222279 -4.181814 -7.207422 0.303462 -13.541898 11.895555 -32.626195 -2.454872 -0.568243 -49.469492 -11.843407 12.886056 8.512225 -31.434159 3.195238 3.400250 -6.593819 3.540934 30.271932 -1.471844 2.386062 47.912355 -7.118842 15.355810 -14.219019 40.684282 6.886464 8.015763 6.628835 -0.598068 
0.110539 0.227631 1.004319 77.852434 1.036593 85.047628 1.352118 0.092764 7.496994 -3.146313 -15.813654 4.356751 2.263235 7.997976 -13.510229 0.000000 -0.000000 0.000000 3.982918 10.460626 -7.512796 1.366249 19.111468 20.594028 8.506852 4.813238 -13.406646 0.000000 -0.000000 0.000000 -1.174823 -4.616678 10.429053 1.214037 -3.243511 0.598111 -2.209528 -2.494851 1.011172 0.610663 -4.795676 -7.166990 0.114264 -13.812599 11.782810 -32.849372 -2.639005 -0.502291 -49.881041 -12.078637 12.761573 8.369043 -30.190460 4.486707 2.914343 -6.663079 4.049234 30.123528 -2.037075 2.167846 48.261413 -7.892261 15.120463 -14.113429 40.794121 7.663164 7.801113 6.815747 -0.799161 
0.115636 0.225905 1.002738 80.027743 0.276211 85.111550 0.792859 -0.033523 6.549829 -3.708265 -16.530047 6.391183 1.920166 6.679241 -14.204859 0.000000 -0.000000 0.000000 3.321618 9.054510 -6.367320 0.190480 17.254166 17.928768 7.313769 3.287662 -10.909586 0.000000 -0.000000 0.000000 -0.312975 -4.532386 10.354300 0.971272 -3.574203 0.844579 -2.519994 -2.742283 1.141275 -0.319592 -6.145595 -6.704456 0.056372 -13.717562 11.174932 -33.396150 -2.686279 -0.508387 -50.250497 -12.247686 12.825637 8.542180 -29.239835 5.641927 3.159601 -6.950174 4.747216 30.011302 -2.552771 2.093764 48.328719 -8.711780 14.791667 -13.828940 40.718477 8.042320 7.805895 6.736358 -1.007069 
0.118493 0.223548 1.002440 81.570919 -0.086301 85.305404 0.770256 -0.300281 5.075205 -4.791652 -17.003082 9.057120 2.029292 6.187012 -14.843848 0.000000 -0.000000 0.000000 3.293024 8.050755 -5.375159 -0.310063 18.399204 16.627513 5.875594 2.293260 -9.748537 0.000000 -0.000000 0.000000 0.941914 -3.959457 10.288282 0.918754 -3.652024 1.149260 -2.818025 -2.695520 1.279314 -0.985183 -7.408872 -6.186516 0.029042 -13.748174 10.530271 -33.918505 -2.785893 -0.344577 -50.595191 -12.257780 12.748580 8.638533 -28.912121 6.486782 3.057410 -6.343318 3.958334 29.938221 -2.579992 2.493875 48.260887 -9.244214 14.428434 -13.573897 40.012700 8.305648 7.355287 6.681718 -1.316800 
0.121239 0.220592 1.002989 83.089358 -0.629115 85.081639 0.516363 -0.595991 3.891012 -5.735050 -17.150356 11.920048 1.655756 5.493238 -15.133208 0.000000 -0.000000 0.000000 2.921927 7.080530 -3.840475 -0.820044 17.580961 14.855383 5.613813 1.740473 -9.453706 0.000000 -0.000000 0.000000 1.566709 -3.410096 10.783885 0.911820 -3.437578 1.338407 -2.760097 -2.482747 1.389434 -1.310941 -8.431169 -5.420446 -0.030034 -14.098760 10.596379 -34.223879 -2.539616 -0.208107 -51.178438 -12.001216 12.772609 9.085255 -29.247423 6.583672 4.466241 -6.486606 4.340099 29.993188 -2.351256 2.809722 47.960279 -9.689014 14.117539 -12.851589 38.759024 8.714458 6.417444 6.593755 -0.713135 
0.121854 0.217112 1.003645 84.489169 -1.368172 85.176360 0.192990 -1.413897 1.990712 -7.058575 -16.313769 15.129564 1.198864 5.269349 -14.587570 0.000000 -0.000000 0.000000 2.165723 6.458545 -3.457546 -0.856184 17.285322 14.149926 5.445079 1.359472 -9.206239 0.000000 -0.000000 0.000000 1.762574 -2.662205 11.148781 1.034489 -3.213001 1.400484 -2.722273 -2.191233 1.281960 -1.315164 -9.179903 -4.657717 -0.414159 -14.667994 11.983921 -34.116700 -1.935522 0.212746 -51.491208 -11.452418 12.816890 9.370795 -30.300665 6.586689 0.984359 -4.963030 2.264700 30.004839 -2.078113 3.448699 47.920276 -9.631044 14.179133 -12.657027 37.141569 9.373931 8.695873 5.833177 -0.124130 
0.121799 0.213423 1.005071 86.095854 -2.202078 84.957965 0.059238 -2.216501 -0.240433 -8.957072 -15.268609 19.240676 0.200405 4.394166 -14.080587 0.000000 -0.000000 0.000000 1.266076 5.808743 -3.012769 -0.858489 16.572233 13.850021 5.374573 1.368999 -9.331680 0.000000 -0.000000 0.000000 1.921427 -1.871908 11.887909 1.112710 -3.128244 1.412483 -2.718326 -1.889072 1.374284 -1.365563 -9.446923 -3.253274 -0.258458 -14.949208 12.463356 -34.372238 -1.288627 0.166077 -50.933554 -11.134676 12.616273 9.384861 -31.188576 6.143993 3.027958 -6.974588 3.930249 30.241510 -1.787947 3.527947 47.502066 -9.428628 14.102468 -11.995123 35.689828 10.685289 8.759388 5.683358 1.982027 
0.120932 0.209550 1.006231 88.063452 -2.926763 84.314152 0.398155 -2.621817 -2.746822 -11.311836 -14.047432 24.160520 -1.337303 2.838418 -12.756867 0.000000 -0.000000 0.000000 0.525315 5.052961 -1.948551 -0.866329 15.515930 13.165577 4.837911 1.241462 -9.339556 0.000000 -0.000000 0.000000 2.093916 -1.276510 13.287612 1.296354 -3.150284 1.272390 -2.621317 -1.662236 1.165314 -1.500202 -9.345792 -1.605673 -0.413104 -14.585210 13.400588 -34.077243 -1.050083 0.388504 -50.642797 -10.202597 12.594408 9.442109 -31.728778 6.861358 1.305957 -5.915571 1.658557 30.239066 -1.690736 3.912910 47.078701 -8.883731 13.905608 -11.414753 34.870910 12.103244 9.941794 5.033414 2.931679 
0.119918 0.205848 1.006920 90.032026 -3.681806 83.563025 1.075600 -2.775422 -5.048814 -13.409610 -12.016200 28.298433 -3.815152 1.210936 -11.531265 0.000000 -0.000000 0.000000 -0.380131 3.671438 -0.534735 -0.897191 14.832732 11.874404 4.485452 1.427713 -9.049722 0.000000 -0.000000 0.000000 2.315520 -0.216348 14.581096 1.569777 -3.456402 1.387918 -2.523818 -1.362800 1.099819 -1.677261 -8.637804 0.000088 -0.434341 -14.177620 14.917114 -34.200602 -1.119707 0.521542 -49.772686 -9.878717 11.932146 9.629929 -31.770972 6.463075 2.885308 -7.293089 2.965454 30.381563 -1.726837 4.347156 46.460940 -8.472340 13.276087 -11.308197 35.134770 12.224980 8.961720 5.285874 3.163097 
0.117069 0.202398 1.007962 91.149633 -4.426936 83.165167 2.187753 -1.821894 -6.962869 -14.911372 -9.642900 30.689346 -6.948068 0.845263 -10.979378 0.000000 -0.000000 0.000000 -1.390069 2.820510 0.145943 -0.683203 13.972510 10.973581 4.545751 1.925760 -8.904912 0.000000 -0.000000 0.000000 2.405153 0.567710 15.679931 1.661293 -3.056445 1.366319 -2.367183 -0.706320 1.031766 -1.543400 -7.581843 2.357840 -0.375372 -13.419160 16.533680 -34.096741 -0.972538 -0.051476 -49.087007 -9.054581 11.721169 9.090116 -31.309421 6.336808 4.224669 -7.059272 2.508493 30.634773 -1.950514 4.605298 45.525606 -7.881227 12.744370 -11.171269 35.804773 12.098493 8.059319 5.524338 2.828610 
0.115098 0.199178 1.008976 92.435750 -5.145722 83.018867 3.193184 -0.634707 -8.239140 -14.854318 -7.005937 31.046466 -6.518148 1.658074 -11.705619 0.000000 -0.000000 0.000000 -2.497834 1.855636 0.986685 -0.434262 13.517247 9.416138 4.487734 2.078495 -8.212198 0.000000 -0.000000 0.000000 2.529775 1.008420 15.963050 1.606958 -2.871739 1.460679 -2.302165 -0.311831 1.176014 -1.057850 -6.572609 4.913159 -0.344804 -11.520576 18.747596 -34.055085 -0.390336 -0.064603 -48.371281 -8.708151 10.661224 9.215823 -30.271678 5.497619 4.859983 -7.288047 3.018366 30.426830 -1.906934 4.992548 45.088153 -6.642791 12.339164 -11.168159 35.629403 11.153500 6.893444 6.003441 2.671318 
